# xmcd CD database file generated by OrangeCD 5.2
#
# Track frame offsets:
#	150
#	14729
#	28403
#	40049
#	50238
#	64070
#	83777
#	98768
#	115577
#	129430
#	144180
#	159589
#
# Disc length: 2325 seconds
#
# Revision: 3
# Processed by: cddbd v1.5PL3 Copyright (c) Steve Scherf et al.
# Submitted via: OrangeCD 5.2
#
DISCID=9e09130c
DTITLE=Ann Tayler - Come On
DYEAR=2002
DGENRE=Country
TTITLE0=Come On
TTITLE1=No More
TTITLE2=That`s What I Like About You
TTITLE3=Hello Goodbye
TTITLE4=Better Things To Do
TTITLE5=Sunshine In The Rain
TTITLE6=The Devil May Care
TTITLE7=There Goes My Heart
TTITLE8=I Do Believe
TTITLE9=Right Here, Right Now
TTITLE10=Forgiven
TTITLE11=Good Days Coming
EXTD=
EXTT0=
EXTT1=
EXTT2=
EXTT3=
EXTT4=
EXTT5=
EXTT6=
EXTT7=
EXTT8=
EXTT9=
EXTT10=
EXTT11=
PLAYORDER=
